<mxfile host="app.diagrams.net" agent="Mozilla/5.0 (Windows NT 10.0; Win64; x64) AppleWebKit/537.36 (KHTML, like Gecko) Chrome/129.0.0.0 Safari/537.36 Edg/129.0.0.0" version="24.7.17">
  <diagram name="Page-1" id="9f46799a-70d6-7492-0946-bef42562c5a5">
    <mxGraphModel dx="3117" dy="4213" grid="1" gridSize="10" guides="1" tooltips="1" connect="1" arrows="1" fold="1" page="1" pageScale="1" pageWidth="1100" pageHeight="850" background="none" math="0" shadow="0">
      <root>
        <mxCell id="0" />
        <mxCell id="1" parent="0" />
        <mxCell id="78961159f06e98e8-56" value="NoticBoard" style="swimlane;html=1;fontStyle=1;align=center;verticalAlign=top;childLayout=stackLayout;horizontal=1;startSize=26;horizontalStack=0;resizeParent=1;resizeLast=0;collapsible=1;marginBottom=0;swimlaneFillColor=#ffffff;rounded=0;shadow=0;comic=0;labelBackgroundColor=none;strokeWidth=1;fillColor=none;fontFamily=Verdana;fontSize=12" parent="1" vertex="1">
          <mxGeometry x="790" y="-840" width="190" height="300" as="geometry" />
        </mxCell>
        <mxCell id="78961159f06e98e8-57" value="+ field: type" style="text;html=1;strokeColor=none;fillColor=none;align=left;verticalAlign=top;spacingLeft=4;spacingRight=4;whiteSpace=wrap;overflow=hidden;rotatable=0;points=[[0,0.5],[1,0.5]];portConstraint=eastwest;" parent="78961159f06e98e8-56" vertex="1">
          <mxGeometry y="26" width="190" height="26" as="geometry" />
        </mxCell>
        <mxCell id="78961159f06e98e8-58" value="+ field: type" style="text;html=1;strokeColor=none;fillColor=none;align=left;verticalAlign=top;spacingLeft=4;spacingRight=4;whiteSpace=wrap;overflow=hidden;rotatable=0;points=[[0,0.5],[1,0.5]];portConstraint=eastwest;" parent="78961159f06e98e8-56" vertex="1">
          <mxGeometry y="52" width="190" height="26" as="geometry" />
        </mxCell>
        <mxCell id="78961159f06e98e8-59" value="+ field: type" style="text;html=1;strokeColor=none;fillColor=none;align=left;verticalAlign=top;spacingLeft=4;spacingRight=4;whiteSpace=wrap;overflow=hidden;rotatable=0;points=[[0,0.5],[1,0.5]];portConstraint=eastwest;" parent="78961159f06e98e8-56" vertex="1">
          <mxGeometry y="78" width="190" height="26" as="geometry" />
        </mxCell>
        <mxCell id="78961159f06e98e8-60" value="+ field: type" style="text;html=1;strokeColor=none;fillColor=none;align=left;verticalAlign=top;spacingLeft=4;spacingRight=4;whiteSpace=wrap;overflow=hidden;rotatable=0;points=[[0,0.5],[1,0.5]];portConstraint=eastwest;" parent="78961159f06e98e8-56" vertex="1">
          <mxGeometry y="104" width="190" height="26" as="geometry" />
        </mxCell>
        <mxCell id="78961159f06e98e8-61" value="+ field: type" style="text;html=1;strokeColor=none;fillColor=none;align=left;verticalAlign=top;spacingLeft=4;spacingRight=4;whiteSpace=wrap;overflow=hidden;rotatable=0;points=[[0,0.5],[1,0.5]];portConstraint=eastwest;" parent="78961159f06e98e8-56" vertex="1">
          <mxGeometry y="130" width="190" height="26" as="geometry" />
        </mxCell>
        <mxCell id="78961159f06e98e8-62" value="+ field: type" style="text;html=1;strokeColor=none;fillColor=none;align=left;verticalAlign=top;spacingLeft=4;spacingRight=4;whiteSpace=wrap;overflow=hidden;rotatable=0;points=[[0,0.5],[1,0.5]];portConstraint=eastwest;" parent="78961159f06e98e8-56" vertex="1">
          <mxGeometry y="156" width="190" height="26" as="geometry" />
        </mxCell>
        <mxCell id="78961159f06e98e8-63" value="+ field: type" style="text;html=1;strokeColor=none;fillColor=none;align=left;verticalAlign=top;spacingLeft=4;spacingRight=4;whiteSpace=wrap;overflow=hidden;rotatable=0;points=[[0,0.5],[1,0.5]];portConstraint=eastwest;" parent="78961159f06e98e8-56" vertex="1">
          <mxGeometry y="182" width="190" height="26" as="geometry" />
        </mxCell>
        <mxCell id="78961159f06e98e8-64" value="" style="line;html=1;strokeWidth=1;fillColor=none;align=left;verticalAlign=middle;spacingTop=-1;spacingLeft=3;spacingRight=3;rotatable=0;labelPosition=right;points=[];portConstraint=eastwest;" parent="78961159f06e98e8-56" vertex="1">
          <mxGeometry y="208" width="190" height="8" as="geometry" />
        </mxCell>
        <mxCell id="78961159f06e98e8-65" value="+ method(type): type" style="text;html=1;strokeColor=none;fillColor=none;align=left;verticalAlign=top;spacingLeft=4;spacingRight=4;whiteSpace=wrap;overflow=hidden;rotatable=0;points=[[0,0.5],[1,0.5]];portConstraint=eastwest;" parent="78961159f06e98e8-56" vertex="1">
          <mxGeometry y="216" width="190" height="26" as="geometry" />
        </mxCell>
        <mxCell id="78961159f06e98e8-66" value="+ method(type): type" style="text;html=1;strokeColor=none;fillColor=none;align=left;verticalAlign=top;spacingLeft=4;spacingRight=4;whiteSpace=wrap;overflow=hidden;rotatable=0;points=[[0,0.5],[1,0.5]];portConstraint=eastwest;" parent="78961159f06e98e8-56" vertex="1">
          <mxGeometry y="242" width="190" height="26" as="geometry" />
        </mxCell>
        <mxCell id="78961159f06e98e8-68" value="+ method(type): type" style="text;html=1;strokeColor=none;fillColor=none;align=left;verticalAlign=top;spacingLeft=4;spacingRight=4;whiteSpace=wrap;overflow=hidden;rotatable=0;points=[[0,0.5],[1,0.5]];portConstraint=eastwest;" parent="78961159f06e98e8-56" vertex="1">
          <mxGeometry y="268" width="190" height="26" as="geometry" />
        </mxCell>
        <mxCell id="kgDiL47KkoBwJGfuJR1O-32" value="" style="group" vertex="1" connectable="0" parent="1">
          <mxGeometry x="-580" y="-840" width="960" height="960" as="geometry" />
        </mxCell>
        <mxCell id="kgDiL47KkoBwJGfuJR1O-28" value="" style="whiteSpace=wrap;html=1;aspect=fixed;" vertex="1" parent="kgDiL47KkoBwJGfuJR1O-32">
          <mxGeometry width="960" height="960" as="geometry" />
        </mxCell>
        <mxCell id="kgDiL47KkoBwJGfuJR1O-4" value="User (Entity)" style="swimlane;" vertex="1" parent="kgDiL47KkoBwJGfuJR1O-32">
          <mxGeometry x="630" y="270" width="200" height="200" as="geometry" />
        </mxCell>
        <mxCell id="kgDiL47KkoBwJGfuJR1O-5" value="&lt;li&gt;&lt;code&gt;id: Long&lt;/code&gt;&lt;/li&gt;&lt;li&gt;&lt;code&gt;username: String&lt;/code&gt;&lt;/li&gt;&lt;li&gt;&lt;code&gt;password: String&lt;/code&gt;&lt;/li&gt;&lt;li&gt;&lt;code&gt;email: String&lt;/code&gt;&lt;/li&gt;&lt;li&gt;&lt;code&gt;role: String&lt;/code&gt;&lt;/li&gt;" style="text;html=1;align=center;verticalAlign=middle;resizable=0;points=[];autosize=1;strokeColor=none;fillColor=none;fontSize=16;" vertex="1" parent="kgDiL47KkoBwJGfuJR1O-4">
          <mxGeometry x="10" y="36" width="170" height="110" as="geometry" />
        </mxCell>
        <mxCell id="kgDiL47KkoBwJGfuJR1O-6" value="Board (Entity)" style="swimlane;" vertex="1" parent="kgDiL47KkoBwJGfuJR1O-32">
          <mxGeometry x="600" y="620" width="300" height="200" as="geometry" />
        </mxCell>
        <mxCell id="kgDiL47KkoBwJGfuJR1O-7" value="&lt;li&gt;&lt;/li&gt;&lt;li&gt;&lt;code&gt;id: Long&lt;/code&gt;&lt;/li&gt;&lt;li&gt;&lt;code&gt;title: String&lt;/code&gt;&lt;/li&gt;&lt;li&gt;&lt;code&gt;content: String&lt;/code&gt;&lt;/li&gt;&lt;li&gt;&lt;code&gt;author: String&lt;/code&gt;&lt;/li&gt;&lt;li&gt;&lt;code&gt;createdAt: LocalDateTime&lt;/code&gt;&lt;/li&gt;&lt;li&gt;&lt;code&gt;updatedAt: LocalDateTime&lt;/code&gt;&lt;/li&gt;" style="text;html=1;align=center;verticalAlign=middle;resizable=0;points=[];autosize=1;strokeColor=none;fillColor=none;fontSize=16;" vertex="1" parent="kgDiL47KkoBwJGfuJR1O-6">
          <mxGeometry x="30" y="25" width="240" height="150" as="geometry" />
        </mxCell>
        <mxCell id="kgDiL47KkoBwJGfuJR1O-8" value="&lt;strong&gt;DTOs&lt;/strong&gt; (Data Transfer Objects)" style="swimlane;childLayout=stackLayout;resizeParent=1;resizeParentMax=0;horizontal=1;startSize=20;horizontalStack=0;html=1;" vertex="1" parent="kgDiL47KkoBwJGfuJR1O-32">
          <mxGeometry x="70" y="70" width="480" height="260" as="geometry" />
        </mxCell>
        <mxCell id="kgDiL47KkoBwJGfuJR1O-10" value="&#xa;UserDTO&#xa;&#xa;" style="swimlane;startSize=20;horizontal=0;html=1;" vertex="1" parent="kgDiL47KkoBwJGfuJR1O-8">
          <mxGeometry y="20" width="480" height="120" as="geometry" />
        </mxCell>
        <mxCell id="kgDiL47KkoBwJGfuJR1O-18" value="&lt;li&gt;&lt;code&gt;username: String&lt;/code&gt;&lt;/li&gt;&lt;li&gt;&lt;code&gt;password: String&lt;/code&gt;&lt;/li&gt;&lt;li&gt;&lt;code&gt;email: String&lt;/code&gt;&lt;/li&gt;" style="text;html=1;align=center;verticalAlign=middle;resizable=0;points=[];autosize=1;strokeColor=none;fillColor=none;fontSize=16;" vertex="1" parent="kgDiL47KkoBwJGfuJR1O-10">
          <mxGeometry x="155" y="26" width="170" height="70" as="geometry" />
        </mxCell>
        <mxCell id="kgDiL47KkoBwJGfuJR1O-11" value="BoardDTO" style="swimlane;startSize=20;horizontal=0;html=1;" vertex="1" parent="kgDiL47KkoBwJGfuJR1O-8">
          <mxGeometry y="140" width="480" height="120" as="geometry" />
        </mxCell>
        <mxCell id="kgDiL47KkoBwJGfuJR1O-19" value="&lt;li&gt;&lt;code&gt;title: String&lt;/code&gt;&lt;/li&gt;&lt;li&gt;&lt;code&gt;content: String&lt;/code&gt;&lt;/li&gt;&lt;li&gt;&lt;code&gt;author: String&lt;/code&gt;&lt;/li&gt;" style="text;html=1;align=center;verticalAlign=middle;resizable=0;points=[];autosize=1;strokeColor=none;fillColor=none;fontSize=16;" vertex="1" parent="kgDiL47KkoBwJGfuJR1O-11">
          <mxGeometry x="170" y="20" width="160" height="70" as="geometry" />
        </mxCell>
        <mxCell id="kgDiL47KkoBwJGfuJR1O-20" value="Repositories" style="swimlane;childLayout=stackLayout;resizeParent=1;resizeParentMax=0;horizontal=1;startSize=20;horizontalStack=0;html=1;" vertex="1" parent="kgDiL47KkoBwJGfuJR1O-32">
          <mxGeometry x="60" y="420" width="480" height="500" as="geometry" />
        </mxCell>
        <mxCell id="kgDiL47KkoBwJGfuJR1O-21" value="&lt;strong&gt;UserRepository&lt;/strong&gt; (interface)" style="swimlane;startSize=20;horizontal=0;html=1;" vertex="1" parent="kgDiL47KkoBwJGfuJR1O-20">
          <mxGeometry y="20" width="480" height="230" as="geometry" />
        </mxCell>
        <mxCell id="kgDiL47KkoBwJGfuJR1O-25" value="&lt;li&gt;&lt;code&gt;findByUsername(String username): Optional&amp;lt;User&amp;gt;&lt;/code&gt;&lt;/li&gt;&lt;li&gt;&lt;code&gt;save(User user): User&lt;/code&gt;&lt;/li&gt;" style="text;html=1;align=center;verticalAlign=middle;resizable=0;points=[];autosize=1;strokeColor=none;fillColor=none;fontSize=16;" vertex="1" parent="kgDiL47KkoBwJGfuJR1O-21">
          <mxGeometry x="40" y="80" width="420" height="50" as="geometry" />
        </mxCell>
        <mxCell id="kgDiL47KkoBwJGfuJR1O-23" value="&lt;strong&gt;BoardRepository&lt;/strong&gt; (interface)" style="swimlane;startSize=20;horizontal=0;html=1;" vertex="1" parent="kgDiL47KkoBwJGfuJR1O-20">
          <mxGeometry y="250" width="480" height="250" as="geometry" />
        </mxCell>
        <mxCell id="kgDiL47KkoBwJGfuJR1O-24" value="&lt;li&gt;&lt;/li&gt;&lt;li&gt;&lt;code&gt;findAll(): List&amp;lt;Board&amp;gt;&lt;/code&gt;&lt;/li&gt;&lt;li&gt;&lt;code&gt;findById(Long id): Optional&amp;lt;Board&amp;gt;&lt;/code&gt;&lt;/li&gt;&lt;li&gt;&lt;code&gt;save(Board board): Board&lt;/code&gt;&lt;/li&gt;&lt;li&gt;&lt;code&gt;deleteById(Long id): void&lt;/code&gt;&lt;/li&gt;" style="text;html=1;align=center;verticalAlign=middle;resizable=0;points=[];autosize=1;strokeColor=none;fillColor=none;fontSize=16;" vertex="1" parent="kgDiL47KkoBwJGfuJR1O-23">
          <mxGeometry x="90" y="60" width="320" height="110" as="geometry" />
        </mxCell>
        <mxCell id="kgDiL47KkoBwJGfuJR1O-29" value="&lt;font style=&quot;font-size: 60px;&quot;&gt;Model&lt;/font&gt;" style="text;html=1;align=center;verticalAlign=middle;whiteSpace=wrap;rounded=0;fontSize=16;" vertex="1" parent="kgDiL47KkoBwJGfuJR1O-32">
          <mxGeometry x="297.5" y="-100" width="365" height="260" as="geometry" />
        </mxCell>
        <mxCell id="kgDiL47KkoBwJGfuJR1O-50" value="" style="group" vertex="1" connectable="0" parent="1">
          <mxGeometry x="-920" y="330" width="760" height="760" as="geometry" />
        </mxCell>
        <mxCell id="kgDiL47KkoBwJGfuJR1O-34" value="" style="whiteSpace=wrap;html=1;aspect=fixed;" vertex="1" parent="kgDiL47KkoBwJGfuJR1O-50">
          <mxGeometry width="760" height="760" as="geometry" />
        </mxCell>
        <mxCell id="kgDiL47KkoBwJGfuJR1O-39" value="&lt;strong&gt;UserService&lt;/strong&gt;" style="swimlane;childLayout=stackLayout;resizeParent=1;resizeParentMax=0;horizontal=1;startSize=20;horizontalStack=0;html=1;" vertex="1" parent="kgDiL47KkoBwJGfuJR1O-50">
          <mxGeometry x="110" y="80" width="480" height="660" as="geometry" />
        </mxCell>
        <mxCell id="kgDiL47KkoBwJGfuJR1O-40" value="userRepository: UserRepository" style="swimlane;startSize=20;horizontal=0;html=1;" vertex="1" parent="kgDiL47KkoBwJGfuJR1O-39">
          <mxGeometry y="20" width="480" height="260" as="geometry" />
        </mxCell>
        <mxCell id="kgDiL47KkoBwJGfuJR1O-41" value="&lt;li style=&quot;font-size: 20px;&quot;&gt;&lt;/li&gt;&lt;li style=&quot;font-size: 20px;&quot;&gt;&lt;code&gt;&lt;font style=&quot;font-size: 20px;&quot;&gt;login(UserDTO userDTO): boolean&lt;/font&gt;&lt;/code&gt;&lt;/li&gt;&lt;li style=&quot;font-size: 20px;&quot;&gt;&lt;code&gt;&lt;font style=&quot;font-size: 20px;&quot;&gt;register(UserDTO userDTO): void&lt;/font&gt;&lt;/code&gt;&lt;/li&gt;&lt;li style=&quot;font-size: 20px;&quot;&gt;&lt;code&gt;&lt;font style=&quot;font-size: 20px;&quot;&gt;findByUsername(String username): UserDTO&lt;/font&gt;&lt;/code&gt;&lt;/li&gt;" style="text;html=1;align=center;verticalAlign=middle;resizable=0;points=[];autosize=1;strokeColor=none;fillColor=none;fontSize=16;" vertex="1" parent="kgDiL47KkoBwJGfuJR1O-40">
          <mxGeometry y="50" width="450" height="110" as="geometry" />
        </mxCell>
        <mxCell id="kgDiL47KkoBwJGfuJR1O-42" value="boardRepository: BoardRepository" style="swimlane;startSize=20;horizontal=0;html=1;" vertex="1" parent="kgDiL47KkoBwJGfuJR1O-39">
          <mxGeometry y="280" width="480" height="380" as="geometry" />
        </mxCell>
        <mxCell id="kgDiL47KkoBwJGfuJR1O-43" value="&lt;li&gt;&lt;/li&gt;&lt;li&gt;&lt;code&gt;getAllBoards(): List&amp;lt;BoardDTO&amp;gt;&lt;/code&gt;&lt;/li&gt;&lt;li&gt;&lt;code&gt;getBoardById(Long id): BoardDTO&lt;/code&gt;&lt;/li&gt;&lt;li&gt;&lt;code&gt;createBoard(BoardDTO boardDTO): BoardDTO&lt;/code&gt;&lt;/li&gt;&lt;li&gt;&lt;code&gt;updateBoard(Long id, BoardDTO boardDTO): BoardDTO&lt;/code&gt;&lt;/li&gt;&lt;li&gt;&lt;code&gt;deleteBoard(Long id): void&lt;/code&gt;&lt;/li&gt;" style="text;html=1;align=center;verticalAlign=middle;resizable=0;points=[];autosize=1;strokeColor=none;fillColor=none;fontSize=16;" vertex="1" parent="kgDiL47KkoBwJGfuJR1O-42">
          <mxGeometry x="20" y="90" width="440" height="130" as="geometry" />
        </mxCell>
        <mxCell id="kgDiL47KkoBwJGfuJR1O-49" value="&lt;span style=&quot;font-size: 60px;&quot;&gt;Service&amp;nbsp;&lt;/span&gt;" style="text;html=1;align=center;verticalAlign=middle;whiteSpace=wrap;rounded=0;fontSize=16;" vertex="1" parent="kgDiL47KkoBwJGfuJR1O-50">
          <mxGeometry x="210" y="-90" width="365" height="260" as="geometry" />
        </mxCell>
        <mxCell id="kgDiL47KkoBwJGfuJR1O-52" value="" style="whiteSpace=wrap;html=1;aspect=fixed;" vertex="1" parent="1">
          <mxGeometry x="175" y="560" width="760" height="760" as="geometry" />
        </mxCell>
        <mxCell id="kgDiL47KkoBwJGfuJR1O-53" value="&lt;strong&gt;UserService&lt;/strong&gt;" style="swimlane;childLayout=stackLayout;resizeParent=1;resizeParentMax=0;horizontal=1;startSize=20;horizontalStack=0;html=1;" vertex="1" parent="1">
          <mxGeometry x="285" y="640" width="480" height="660" as="geometry" />
        </mxCell>
        <mxCell id="kgDiL47KkoBwJGfuJR1O-54" value="userService: UserService" style="swimlane;startSize=20;horizontal=0;html=1;" vertex="1" parent="kgDiL47KkoBwJGfuJR1O-53">
          <mxGeometry y="20" width="480" height="260" as="geometry" />
        </mxCell>
        <mxCell id="kgDiL47KkoBwJGfuJR1O-55" value="&lt;li style=&quot;font-size: 20px;&quot;&gt;&lt;/li&gt;&lt;li&gt;&lt;code&gt;login(UserDTO userDTO): String&lt;/code&gt;&lt;/li&gt;&lt;li&gt;&lt;code&gt;register(UserDTO userDTO): String&lt;/code&gt;&lt;/li&gt;&lt;li&gt;&lt;code&gt;logout(): String&lt;/code&gt;&lt;/li&gt;" style="text;html=1;align=center;verticalAlign=middle;resizable=0;points=[];autosize=1;strokeColor=none;fillColor=none;fontSize=16;" vertex="1" parent="kgDiL47KkoBwJGfuJR1O-54">
          <mxGeometry x="70" y="55" width="310" height="100" as="geometry" />
        </mxCell>
        <mxCell id="kgDiL47KkoBwJGfuJR1O-56" value="boardService: BoardService" style="swimlane;startSize=20;horizontal=0;html=1;" vertex="1" parent="kgDiL47KkoBwJGfuJR1O-53">
          <mxGeometry y="280" width="480" height="380" as="geometry" />
        </mxCell>
        <mxCell id="kgDiL47KkoBwJGfuJR1O-57" value="&lt;li&gt;&lt;ul&gt;&lt;li&gt;&lt;code&gt;getAllBoards(Model model): String&lt;/code&gt;&lt;/li&gt;&lt;li&gt;&lt;code&gt;getBoardById(Long id, Model model): String&lt;/code&gt;&lt;/li&gt;&lt;li&gt;&lt;code&gt;createBoard(BoardDTO boardDTO): String&lt;/code&gt;&lt;/li&gt;&lt;li&gt;&lt;code&gt;updateBoard(Long id, BoardDTO boardDTO): String&lt;/code&gt;&lt;/li&gt;&lt;li&gt;&lt;code&gt;deleteBoard(Long id): String&lt;/code&gt;&lt;/li&gt;&lt;/ul&gt;&lt;/li&gt;" style="text;html=1;align=center;verticalAlign=middle;resizable=0;points=[];autosize=1;strokeColor=none;fillColor=none;fontSize=16;" vertex="1" parent="kgDiL47KkoBwJGfuJR1O-56">
          <mxGeometry x="20" y="75" width="440" height="160" as="geometry" />
        </mxCell>
        <mxCell id="kgDiL47KkoBwJGfuJR1O-58" value="&lt;font style=&quot;font-size: 30px;&quot;&gt;Controller (컨트롤러)&amp;nbsp;&lt;/font&gt;" style="text;html=1;align=center;verticalAlign=middle;whiteSpace=wrap;rounded=0;fontSize=16;" vertex="1" parent="1">
          <mxGeometry x="190" y="460" width="610" height="270" as="geometry" />
        </mxCell>
        <mxCell id="kgDiL47KkoBwJGfuJR1O-59" value="boardService: BoardService" style="text;strokeColor=none;fillColor=none;html=1;fontSize=24;fontStyle=1;verticalAlign=middle;align=center;" vertex="1" parent="1">
          <mxGeometry x="500" y="920" width="100" height="40" as="geometry" />
        </mxCell>
        <mxCell id="kgDiL47KkoBwJGfuJR1O-60" value="" style="endArrow=none;html=1;rounded=0;fontSize=12;startSize=8;endSize=8;curved=1;" edge="1" parent="1">
          <mxGeometry width="50" height="50" relative="1" as="geometry">
            <mxPoint x="310" y="970" as="sourcePoint" />
            <mxPoint x="771.4034231085526" y="970" as="targetPoint" />
          </mxGeometry>
        </mxCell>
      </root>
    </mxGraphModel>
  </diagram>
</mxfile>
